<?xml version="1.0" encoding="UTF-8" standalone="no"?>
<svg
   viewBox="0 0 12 16.75"
   version="1.1"
   id="svg834"
   sodipodi:docname="water-percent.svg"
   width="12"
   height="16.75"
   inkscape:version="1.1.1 (3bf5ae0d25, 2021-09-20)"
   xmlns:inkscape="http://www.inkscape.org/namespaces/inkscape"
   xmlns:sodipodi="http://sodipodi.sourceforge.net/DTD/sodipodi-0.dtd"
   xmlns="http://www.w3.org/2000/svg"
   xmlns:svg="http://www.w3.org/2000/svg">
  <defs
     id="defs838" />
  <sodipodi:namedview
     id="namedview836"
     pagecolor="#505050"
     bordercolor="#eeeeee"
     borderopacity="1"
     inkscape:pageshadow="0"
     inkscape:pageopacity="0"
     inkscape:pagecheckerboard="0"
     showgrid="false"
     fit-margin-top="0"
     fit-margin-left="0"
     fit-margin-right="0"
     fit-margin-bottom="0"
     inkscape:zoom="33.375"
     inkscape:cx="6.0074906"
     inkscape:cy="8.7640449"
     inkscape:window-width="1920"
     inkscape:window-height="1009"
     inkscape:window-x="-8"
     inkscape:window-y="-8"
     inkscape:window-maximized="1"
     inkscape:current-layer="svg834" />
  <path
     d="m 6,0 c 0,0 -6,6.75 -6,10.75 0,3.32 2.69,6 6,6 a 6,6 0 0 0 6,-6 C 12,6.75 6,0 6,0 m 2.47,6.72 1.06,1.06 -6,6 -1.06,-1.06 M 3.75,6.75 A 1.25,1.25 0 0 1 5,8 1.25,1.25 0 0 1 3.75,9.25 1.25,1.25 0 0 1 2.5,8 1.25,1.25 0 0 1 3.75,6.75 m 4.5,4.5 A 1.25,1.25 0 0 1 9.5,12.5 1.25,1.25 0 0 1 8.25,13.75 1.25,1.25 0 0 1 7,12.5 1.25,1.25 0 0 1 8.25,11.25 Z"
     id="path832" />
</svg>
