<?xml version="1.0" encoding="UTF-8" standalone="no"?>
<svg
   viewBox="0 0 18.749998 18.75"
   version="1.1"
   id="svg834"
   sodipodi:docname="water-percent.svg"
   width="18.749998"
   height="18.75"
   inkscape:version="1.1.1 (3bf5ae0d25, 2021-09-20)"
   xmlns:inkscape="http://www.inkscape.org/namespaces/inkscape"
   xmlns:sodipodi="http://sodipodi.sourceforge.net/DTD/sodipodi-0.dtd"
   xmlns="http://www.w3.org/2000/svg"
   xmlns:svg="http://www.w3.org/2000/svg">
  <defs
     id="defs838" />
  <sodipodi:namedview
     id="namedview836"
     pagecolor="#505050"
     bordercolor="#eeeeee"
     borderopacity="1"
     inkscape:pageshadow="0"
     inkscape:pageopacity="0"
     inkscape:pagecheckerboard="0"
     showgrid="false"
     fit-margin-top="1"
     fit-margin-left="3.375"
     fit-margin-right="3.375"
     fit-margin-bottom="1"
     inkscape:zoom="33.375"
     inkscape:cx="9.9026217"
     inkscape:cy="11.011236"
     inkscape:window-width="1920"
     inkscape:window-height="1009"
     inkscape:window-x="-8"
     inkscape:window-y="-8"
     inkscape:window-maximized="1"
     inkscape:current-layer="svg834"
     lock-margins="false"
     width="16.75px" />
  <path
     d="m 9.375,1 c 0,0 -6,6.75 -6,10.75 0,3.32 2.69,6 6,6 a 6,6 0 0 0 5.999999,-6 C 15.374999,7.75 9.375,1 9.375,1 m 2.469999,6.72 1.06,1.06 -5.999999,6 -1.06,-1.06 M 7.125,7.75 A 1.25,1.25 0 0 1 8.375,9 1.25,1.25 0 0 1 7.125,10.25 1.25,1.25 0 0 1 5.875,9 1.25,1.25 0 0 1 7.125,7.75 m 4.499999,4.5 a 1.25,1.25 0 0 1 1.25,1.25 1.25,1.25 0 0 1 -1.25,1.25 A 1.25,1.25 0 0 1 10.375,13.5 1.25,1.25 0 0 1 11.624999,12.25 Z"
     id="path832" />
</svg>
